<svg xmlns="http://www.w3.org/2000/svg" viewBox="0 0 240 48" fill="none">
  <!-- Isotipo: Paquete con flecha de velocidad -->
  <g>
    <!-- Base del paquete -->
    <path d="M24 4L6 14v20l18 10 18-10V14L24 4z" fill="#0E7490" opacity="0.15"/>
    <path d="M24 4L6 14l18 10 18-10L24 4z" fill="#0E7490" opacity="0.3"/>
    <path d="M24 24v20l18-10V14L24 24z" fill="#0E7490" opacity="0.6"/>
    <path d="M24 24v20L6 34V14l18 10z" fill="#0E7490"/>
    <!-- Flecha de velocidad sobre el paquete -->
    <path d="M14 20l8-6 8 6" stroke="white" stroke-width="2.5" stroke-linecap="round" stroke-linejoin="round" fill="none"/>
    <path d="M22 14l4 0 0 4" stroke="white" stroke-width="2.5" stroke-linecap="round" stroke-linejoin="round" fill="none"/>
    <!-- Líneas de velocidad -->
    <line x1="10" y1="18" x2="4" y2="18" stroke="#0E7490" stroke-width="2" stroke-linecap="round" opacity="0.4"/>
    <line x1="12" y1="22" x2="5" y2="22" stroke="#0E7490" stroke-width="2" stroke-linecap="round" opacity="0.3"/>
    <line x1="11" y1="26" x2="7" y2="26" stroke="#0E7490" stroke-width="2" stroke-linecap="round" opacity="0.2"/>
  </g>
  <!-- Logotipo -->
  <text x="54" y="22" font-family="'Plus Jakarta Sans', 'Inter', system-ui, sans-serif" font-size="24" font-weight="800" letter-spacing="-0.5" fill="currentColor">
    Envio<tspan fill="#0E7490">Plus</tspan>
  </text>
  <!-- Tagline -->
  <text x="54" y="38" font-family="'Plus Jakarta Sans', 'Inter', system-ui, sans-serif" font-size="9" font-weight="500" letter-spacing="2.5" fill="currentColor" opacity="0.45" text-transform="uppercase">
    INFRAESTRUCTURA LOGÍSTICA
  </text>
</svg>
