<svg xmlns="http://www.w3.org/2000/svg" viewBox="0 0 48 48" fill="none">
  <!-- Paquete 3D -->
  <path d="M24 4L6 14v20l18 10 18-10V14L24 4z" fill="#0B1220"/>
  <path d="M24 4L6 14l18 10 18-10L24 4z" fill="#162032"/>
  <path d="M24 24v20l18-10V14L24 24z" fill="#0E7490" opacity="0.8"/>
  <path d="M24 24v20L6 34V14l18 10z" fill="#0E7490"/>
  <!-- Flecha -->
  <path d="M16 21l6-5 6 5" stroke="white" stroke-width="2.5" stroke-linecap="round" stroke-linejoin="round" fill="none"/>
  <path d="M22 16l4 0 0 4" stroke="white" stroke-width="2" stroke-linecap="round" stroke-linejoin="round" fill="none" opacity="0.8"/>
  <!-- Plus symbol -->
  <rect x="35" y="2" width="11" height="11" rx="3" fill="#0E7490"/>
  <line x1="40.5" y1="4.5" x2="40.5" y2="10.5" stroke="white" stroke-width="2" stroke-linecap="round"/>
  <line x1="37.5" y1="7.5" x2="43.5" y2="7.5" stroke="white" stroke-width="2" stroke-linecap="round"/>
</svg>
